<?xml version="1.0" standalone="no"?>
<!DOCTYPE svg PUBLIC "-//W3C//DTD SVG 20010904//EN"
 "http://www.w3.org/TR/2001/REC-SVG-20010904/DTD/svg10.dtd">
<svg version="1.0" xmlns="http://www.w3.org/2000/svg"
 width="1231.000000pt" height="1231.000000pt" viewBox="0 0 1231.000000 1231.000000"
 preserveAspectRatio="xMidYMid meet">
<metadata>
Created by potrace 1.14, written by Peter Selinger 2001-2017
</metadata>
<g transform="translate(0.000000,1231.000000) scale(0.100000,-0.100000)"
fill="#000000" stroke="none">
<path d="M6255 11786 c-164 -51 -295 -174 -347 -323 -18 -54 -22 -88 -22 -163
2 -155 35 -244 155 -411 76 -106 110 -174 134 -264 17 -67 20 -208 4 -275 -27
-116 -117 -242 -232 -324 -84 -59 -151 -92 -271 -131 -308 -101 -635 -56 -801
110 -93 92 -109 161 -80 351 29 192 8 291 -80 380 -67 67 -124 89 -230 89 -71
0 -100 -5 -137 -22 -66 -30 -133 -96 -165 -162 -24 -48 -28 -68 -28 -141 1
-65 6 -96 22 -132 46 -101 151 -180 258 -194 28 -4 88 -26 135 -49 195 -97
327 -318 305 -509 -30 -266 -298 -523 -645 -618 -121 -33 -334 -32 -430 1
-206 72 -340 230 -395 467 -8 37 -22 146 -31 243 -35 401 -124 626 -322 813
-267 251 -634 195 -883 -134 -163 -218 -177 -364 -46 -485 78 -72 175 -113
392 -167 284 -70 501 -184 668 -351 240 -240 327 -580 238 -927 -86 -336 -319
-586 -501 -539 -37 10 -58 27 -125 99 -156 169 -331 339 -394 381 -146 99
-259 128 -378 98 -129 -34 -223 -100 -294 -209 -53 -83 -72 -164 -67 -286 3
-93 6 -105 46 -185 31 -63 57 -99 101 -140 109 -100 196 -127 415 -127 255 0
356 -30 460 -139 112 -118 150 -279 111 -466 -30 -141 -128 -289 -243 -365
-173 -114 -441 -94 -1166 90 -475 120 -678 160 -881 175 -171 12 -324 -34
-378 -112 -79 -116 -54 -304 54 -411 83 -82 200 -132 399 -173 151 -30 528
-45 785 -30 280 16 436 31 850 82 227 27 334 15 480 -58 376 -187 541 -720
300 -967 -113 -117 -303 -155 -555 -112 -187 33 -324 9 -430 -75 -103 -81
-153 -184 -154 -314 0 -107 31 -174 128 -271 102 -102 196 -147 323 -152 107
-5 151 7 255 69 118 69 188 91 314 97 162 7 259 -25 357 -116 56 -53 92 -105
113 -164 107 -303 -96 -696 -544 -1055 -110 -89 -183 -140 -477 -331 -377
-247 -445 -321 -445 -485 0 -239 291 -367 519 -229 207 125 407 397 542 734
56 141 111 229 202 324 181 190 423 294 683 294 190 0 349 -60 480 -183 186
-174 232 -360 184 -757 -27 -226 -23 -279 25 -327 23 -23 42 -33 63 -33 78 0
133 45 293 238 153 184 218 252 295 308 165 119 283 130 463 44 164 -79 268
-172 333 -297 54 -104 63 -150 62 -308 0 -123 -5 -160 -37 -305 -20 -91 -49
-237 -64 -325 -24 -143 -25 -166 -14 -229 6 -38 24 -91 38 -118 37 -68 121
-142 188 -167 76 -29 194 -29 270 0 113 42 215 172 230 293 10 74 -11 164 -94
418 -96 294 -106 346 -106 553 0 196 11 248 78 385 108 221 418 429 638 430
171 0 279 -84 389 -303 46 -90 96 -235 205 -592 90 -295 177 -402 297 -366 91
28 131 80 130 171 -1 79 -41 178 -153 380 -172 309 -236 464 -258 623 -23 164
26 320 137 439 38 41 66 42 176 8 171 -52 228 -40 447 95 112 69 160 83 233
68 63 -13 192 -66 238 -97 72 -48 119 -174 163 -437 14 -82 34 -173 45 -202
90 -240 298 -375 522 -338 400 65 561 550 269 811 -107 96 -213 139 -440 175
-450 72 -456 74 -533 169 -102 127 -148 252 -149 402 0 103 12 162 52 251 115
259 374 407 622 356 149 -30 256 -102 415 -280 69 -77 102 -105 154 -132 275
-140 604 98 635 461 15 176 -75 357 -210 422 -48 24 -69 27 -257 36 -287 14
-390 40 -443 112 -75 101 27 407 196 585 137 146 329 237 597 285 87 15 176
21 363 25 278 6 305 3 485 -58 204 -69 298 -90 423 -96 128 -6 170 5 237 62
71 60 132 184 132 269 -1 86 -71 178 -177 232 -51 25 -69 29 -143 29 -151 0
-339 -69 -522 -191 -54 -36 -118 -74 -142 -84 -115 -51 -343 -67 -508 -36
-389 74 -755 333 -876 622 -29 70 -52 208 -52 315 0 316 126 585 320 684 122
62 215 68 445 30 190 -32 286 -33 340 -4 58 31 85 58 111 114 58 123 7 266
-120 333 -44 23 -63 27 -141 27 -113 0 -137 -13 -287 -153 -87 -81 -123 -107
-201 -145 -132 -64 -231 -96 -363 -115 -96 -14 -127 -14 -210 -4 -172 22 -374
103 -464 188 -84 78 -145 225 -156 378 -18 235 94 386 286 386 264 0 472 258
420 522 -33 168 -155 301 -315 343 -268 69 -523 -106 -555 -381 -8 -73 -30
-151 -60 -216 -16 -34 -106 -94 -178 -119 -106 -37 -215 -18 -383 66 -124 63
-161 111 -196 255 -13 52 -16 135 -18 415 -2 277 -5 364 -18 416 -31 134 -98
223 -194 259 -132 49 -158 28 -252 -208 -101 -253 -192 -349 -376 -397 -133
-34 -379 -9 -590 60 -325 106 -468 268 -407 461 37 119 96 186 311 353 207
161 281 313 267 546 -10 165 -49 271 -133 365 -87 97 -194 140 -342 139 -53 0
-114 -6 -136 -13z m1409 -3748 c8 -13 62 -159 120 -325 58 -166 110 -312 115
-326 l9 -24 96 25 c132 34 133 34 179 -111 43 -135 46 -171 15 -188 -41 -22
-492 -169 -519 -169 -15 0 -31 6 -37 13 -13 15 -322 972 -322 995 0 34 21 47
147 88 151 50 177 53 197 22z m-736 -231 c6 -7 63 -160 126 -341 64 -181 118
-332 121 -335 4 -3 45 5 93 17 102 26 116 27 135 7 16 -15 87 -230 87 -263 0
-10 -8 -26 -17 -34 -23 -21 -488 -178 -524 -178 -19 0 -34 8 -43 23 -18 28
-316 955 -316 983 0 37 24 52 150 92 135 43 172 49 188 29z m-494 -170 c18
-14 306 -941 306 -988 0 -14 -8 -33 -17 -41 -10 -9 -85 -37 -167 -63 -148 -46
-149 -47 -174 -28 -21 16 -50 95 -180 498 -121 378 -152 485 -145 505 7 22 29
32 163 77 168 56 187 59 214 40z m-644 -249 c48 -15 111 -60 144 -102 63 -83
116 -250 116 -366 0 -158 -122 -285 -362 -375 -27 -10 -48 -21 -48 -24 0 -4
15 -52 34 -108 46 -138 49 -134 -134 -194 -124 -41 -148 -46 -165 -35 -15 9
-62 137 -182 497 -89 266 -162 493 -162 505 -1 11 7 28 17 37 21 19 427 151
511 167 105 19 163 18 231 -2z m-938 -265 c16 -18 88 -235 88 -265 0 -26 -33
-46 -121 -71 -132 -38 -169 -62 -169 -108 0 -40 35 -55 147 -63 175 -13 255
-55 311 -165 28 -56 32 -74 32 -141 0 -147 -48 -221 -195 -297 -82 -43 -254
-103 -408 -143 -80 -21 -88 -22 -105 -7 -10 9 -38 77 -62 152 l-45 137 28 24
c15 13 78 39 141 59 122 38 152 59 142 98 -8 32 -42 44 -141 52 -206 16 -291
75 -332 232 -30 116 -3 223 77 303 63 63 248 145 450 199 95 25 142 26 162 4z
m3962 -40 c19 -37 76 -225 76 -250 0 -32 -28 -48 -139 -82 -135 -42 -182 -89
-136 -135 17 -16 32 -19 172 -35 185 -20 272 -91 303 -247 21 -106 -13 -219
-85 -283 -75 -66 -299 -157 -533 -216 -67 -18 -74 -18 -89 -3 -26 27 -104 278
-92 299 13 26 50 43 153 73 96 28 129 45 146 76 8 15 6 24 -10 40 -23 23 -31
25 -163 39 -195 22 -271 84 -306 249 -15 70 -14 99 4 159 20 67 89 143 168
187 118 65 389 154 474 155 37 1 44 -3 57 -26z m-884 -399 c37 -111 42 -136
33 -156 -9 -20 -39 -35 -150 -77 -175 -65 -166 -60 -151 -99 7 -18 17 -32 23
-32 5 0 50 12 98 27 107 32 107 33 141 -94 l24 -91 -21 -19 c-12 -11 -42 -27
-67 -36 -108 -39 -100 -33 -87 -66 7 -20 17 -29 27 -27 8 3 77 22 152 42 175
48 170 51 221 -114 42 -138 43 -144 20 -164 -21 -18 -587 -208 -619 -208 -11
0 -28 8 -36 18 -19 21 -328 960 -328 995 0 13 7 30 15 37 28 23 588 200 625
197 l35 -2 45 -131z m-882 -132 c21 -21 335 -962 335 -1005 0 -15 -6 -34 -14
-42 -18 -17 -257 -95 -292 -95 -36 0 -46 19 -108 200 -29 85 -55 158 -59 163
-3 4 -14 -50 -23 -120 -11 -81 -22 -133 -32 -142 -16 -16 -87 -41 -118 -41
-10 0 -61 44 -112 98 -78 80 -93 92 -86 67 5 -16 29 -98 55 -182 36 -119 44
-157 37 -177 -9 -21 -30 -31 -157 -71 -146 -46 -147 -47 -172 -28 -21 16 -50
97 -183 508 -87 270 -158 497 -159 506 0 9 8 23 18 32 25 22 299 109 322 102
10 -3 91 -91 180 -195 90 -105 166 -190 169 -190 4 0 15 111 25 248 10 136 22
254 27 264 8 14 279 115 317 117 6 1 20 -7 30 -17z m-1476 -486 c9 -7 141
-215 293 -462 271 -441 294 -487 263 -511 -25 -20 -268 -94 -295 -91 -21 2
-36 16 -61 54 l-33 52 -95 -31 -94 -32 6 -58 c9 -79 -2 -89 -154 -137 -136
-44 -163 -47 -185 -26 -17 17 -16 9 -63 619 -35 446 -37 479 -21 494 16 16
373 140 407 142 8 0 23 -5 32 -13z m-930 -379 c31 -15 73 -46 93 -69 65 -71
131 -240 109 -276 -14 -22 -241 -105 -269 -98 -13 3 -31 26 -48 61 -32 66 -64
86 -100 62 -30 -20 -38 -56 -26 -127 20 -125 69 -239 125 -294 75 -73 146 -23
118 82 -6 21 -11 23 -44 17 -35 -6 -38 -5 -49 26 -23 65 -25 63 163 123 95 31
181 56 189 56 34 0 83 -223 75 -341 -10 -156 -107 -260 -292 -314 -79 -23
-220 -17 -296 13 -224 88 -398 485 -336 765 21 95 54 158 114 220 86 89 189
128 328 124 75 -2 100 -7 146 -30z"/>
<path d="M5530 7009 c-19 -6 -41 -12 -47 -14 -10 -3 -6 -24 14 -77 14 -40 29
-77 34 -82 12 -13 100 21 131 51 34 33 38 83 8 113 -22 22 -78 25 -140 9z"/>
<path d="M5473 5590 c3 -14 11 -68 17 -120 16 -127 13 -121 52 -108 18 6 37
14 41 18 8 7 -36 103 -88 190 -19 32 -25 38 -22 20z"/>
<path d="M9860 10999 c-132 -26 -276 -136 -337 -259 -40 -82 -52 -136 -53
-231 -1 -272 217 -489 491 -489 241 0 440 158 488 388 73 351 -235 660 -589
591z"/>
<path d="M8870 10321 c-92 -20 -185 -101 -214 -188 -24 -69 -21 -158 8 -218
34 -73 69 -110 138 -144 147 -74 321 -14 394 136 37 74 38 164 5 240 -25 58
-102 136 -154 158 -42 17 -133 26 -177 16z"/>
<path d="M355 8037 c-91 -31 -145 -74 -176 -142 -35 -77 -18 -149 51 -216 61
-59 128 -83 230 -82 95 1 164 29 218 87 102 111 74 247 -67 324 -51 28 -74 35
-139 38 -48 2 -92 -1 -117 -9z"/>
<path d="M1112 7939 c-62 -31 -93 -83 -93 -152 0 -84 30 -131 104 -162 114
-47 237 35 237 159 0 54 -16 89 -57 128 -55 52 -121 61 -191 27z"/>
<path d="M11335 7610 c-190 -34 -348 -136 -412 -267 -21 -45 -25 -63 -21 -118
5 -88 41 -137 133 -185 60 -31 77 -35 163 -38 231 -9 453 105 533 273 36 74
37 123 5 192 -51 108 -232 173 -401 143z"/>
<path d="M10371 7212 c-53 -20 -129 -92 -156 -147 -12 -25 -21 -68 -23 -116
-5 -97 20 -159 88 -223 66 -61 109 -78 200 -78 91 0 134 17 200 78 68 64 93
126 88 223 -2 48 -11 91 -23 116 -28 58 -106 130 -161 149 -60 20 -156 19
-213 -2z"/>
<path d="M11390 5166 c-66 -19 -102 -40 -143 -85 -94 -104 -67 -236 86 -416
91 -107 189 -187 287 -234 69 -33 81 -35 170 -36 83 0 101 3 140 25 100 56
130 201 88 435 -20 112 -104 211 -231 271 -40 18 -96 38 -126 44 -72 13 -215
11 -271 -4z"/>
<path d="M1223 4956 c-94 -31 -190 -131 -241 -253 -69 -164 -46 -411 53 -559
59 -90 163 -143 249 -129 84 13 195 112 295 261 l48 71 4 109 c8 235 5 266
-25 328 -65 132 -250 216 -383 172z"/>
<path d="M3492 2849 c-99 -49 -152 -128 -160 -240 -9 -122 52 -230 162 -286
69 -36 180 -38 248 -5 150 73 215 251 144 395 -73 150 -247 210 -394 136z"/>
<path d="M1384 1966 c-109 -25 -204 -76 -286 -155 -101 -95 -140 -173 -146
-287 -4 -72 -1 -89 21 -137 106 -231 464 -275 719 -87 281 207 271 540 -21
651 -71 27 -203 34 -287 15z"/>
<path d="M2586 1901 c-44 -29 -66 -70 -66 -122 0 -153 203 -204 272 -68 51 98
-20 209 -132 209 -27 0 -56 -8 -74 -19z"/>
<path d="M2194 1538 c-59 -19 -127 -80 -159 -143 -26 -50 -30 -70 -30 -134 0
-91 24 -150 82 -208 56 -56 105 -77 195 -81 65 -3 85 0 131 21 226 103 235
416 16 526 -53 26 -73 31 -133 30 -39 -1 -85 -6 -102 -11z"/>
<path d="M8375 1437 c-49 -19 -75 -42 -95 -83 -28 -54 -25 -123 10 -271 17
-69 41 -186 54 -259 36 -197 83 -282 182 -329 79 -37 183 -26 229 25 23 25 86
45 209 65 120 19 186 46 226 91 100 115 41 342 -126 480 -104 87 -344 228
-450 265 -72 25 -197 34 -239 16z"/>
</g>
</svg>
